# AST/ASF file generated using VICON BodyLanguage
# -----------------------------------------------
:version 1.10
:name VICON
:units
  mass 1.0
  length 0.45
  angle deg
:documentation
   .ast/.asf automatically generated from VICON data using
   VICON BodyBuilder and BodyLanguage model FoxedUp or BRILLIANT.MOD
:root
   order TX TY TZ RX RY RZ
   axis XYZ
   position 0 0 0  
   orientation 0 0 0 
:bonedata
  begin
     id 1 
     name lhipjoint
     direction 0.645893 -0.654526 0.392961 
     length 2.38111 
     axis 0 0 0  XYZ
  end
  begin
     id 2 
     name lfemur
     direction 0.34202 -0.939693 0  
     length 6.6822  
     axis 0 0 20  XYZ
    dof rx ry rz
    limits (-160.0 20.0)
           (-70.0 70.0)
           (-60.0 70.0)
  end
  begin
     id 3 
     name ltibia
     direction 0.34202 -0.939693 0   
     length 6.93904   
     axis 0 0 20   XYZ
    dof rx
    limits (-10.0 170.0)
  end
  begin
     id 4 
     name lfoot
     direction 0.0694967 -0.190941 0.979138   
     length 2.13616   
     axis -90 7.62852e-016 20   XYZ
    dof rx rz
    limits (-45.0 90.0)
           (-70.0 20.0)
  end
  begin
     id 5 
     name ltoes
     direction 1.535e-011 -4.2202e-011 1   
     length 1.07536   
     axis -90 7.62852e-016 20   XYZ
    dof rx
    limits (-90.0 20.0)
  end
  begin
     id 6 
     name rhipjoint
     direction -0.700219 -0.612087 0.367481   
     length 2.54621  
     axis 0 0 0  XYZ 
  end
  begin
     id 7 
     name rfemur
     direction -0.34202 -0.939693 0   
     length 6.55353   
     axis 0 0 -20   XYZ
    dof rx ry rz
    limits (-160.0 20.0)
           (-70.0 70.0)
           (-70.0 60.0)
  end
  begin
     id 8 
     name rtibia
     direction -0.34202 -0.939693 0   
     length 6.8736   
     axis 0 0 -20   XYZ
    dof rx
    limits (-10.0 170.0)
 end
 begin
     id 9 
     name rfoot
     direction -0.0679995 -0.186827 0.980037   
     length 2.1218  
     axis -90 -7.62852e-016 -20   XYZ
    dof rx rz
    limits (-45.0 90.0)
           (-20.0 70.0)
  end
  begin
     id 10 
     name rtoes
     direction -1.53589e-011 -4.21772e-011 1   
     length 1.06864   
     axis -90 -7.62852e-016 -20   XYZ
    dof rx
    limits (-90.0 20.0)
  end
  begin
     id 11 
     name lowerback
     direction -0.0416607 0.996347 -0.0745409   
     length 2.12205   
     axis 0 0 0   XYZ
    dof rx ry rz
    limits (-20.0 45.0)
           (-30.0 30.0)
           (-30.0 30.0)
  end
  begin
     id 12 
     name upperback
     direction -0.000153993 0.999276 -0.0380568   
     length 2.12759   
     axis 0 0 0   XYZ
    dof rx ry rz
    limits (-20.0 45.0)
           (-30.0 30.0)
           (-30.0 30.0)
  end
  begin
     id 13 
     name thorax
     direction 0.0187671 0.999821 -0.00241421   
     length 2.13704   
     axis 0 0 0   XYZ
    dof rx ry rz
    limits (-20.0 45.0)
           (-30.0 30.0)
           (-30.0 30.0)
  end
  begin
     id 14 
     name lowerneck
     direction 0.0268157 0.964865 0.261374   
     length 1.65253   
     axis 0 0 0   XYZ
    dof rx ry rz
    limits (-20.0 45.0)
           (-30.0 30.0)
           (-30.0 30.0)
  end
  begin
     id 15 
     name upperneck
     direction 0.00263774 0.939908 -0.341418   
     length 1.72375   
     axis 0 0 0   XYZ
    dof rx ry rz
    limits (-20.0 45.0)
           (-30.0 30.0)
           (-30.0 30.0)
  end
  begin
     id 16
     name head
     direction -0.00526001 0.989001 -0.147818  
     length 1.74878  
     axis 0 0 0   XYZ
    dof rx ry rz
    limits (-20.0 45.0)
           (-30.0 30.0)
           (-30.0 30.0)
  end
  begin
     id 17 
     name lclavicle
     direction 0.881214 0.461162 -0.103884  
     length 3.25108  
     axis 0 0 0   XYZ
    dof ry rz
    limits (-20.0 10.0)
           (0.0 20.0)
  end
  begin
     id 18 
     name lhumerus
     direction 1 -4.4899e-011 3.38092e-027   
     length 4.87408   
     axis 180 -30 -90   XYZ
    dof rx ry rz
    limits (-60.0 90.0)
           (-90.0 90.0)
           (-90.0 90.0)
  end
  begin
     id 19
     name lradius
     direction 1 -4.48931e-011 9.96288e-027   
     length 2.76729   
     axis 180 -30 -90   XYZ
    dof rx
    limits (-10.0 170.0)
  end
  begin
     id 20
     name lwrist
     direction 1 -4.4896e-011 1.50617e-026   
     length 1.38364   
     axis -9.31234e-015 90 90   XYZ
    dof ry
    limits (-180.0 0.0)
 end
  begin
     id 21 
     name lhand
     direction 1 -4.49038e-011 3.01286e-026   
     length 0.98922   
     axis -1.92217e-014 90 90   XYZ
    dof rx rz
    limits (-90.0 90.0)
           (-45.0 45.0)
  end
  begin
     id 22 
     name lfingers
     direction 1 -4.49051e-011 6.02588e-026   
     length 0.797535   
     axis -3.84436e-014 90 90   XYZ
    dof rx
    limits (0.0 90.0)
  end
  begin
     id 23
     name lthumb
     direction 0.707107 -6.34901e-011 0.707107   
     length 1.14511   
     axis -90 45 2.19363e-014   XYZ
    dof rx rz
    limits (-45.0 45.0)
           (-45.0 45.0)
  end
  begin
     id 24 
     name rclavicle
     direction -0.893894 0.441652 -0.0767889   
     length 3.29361  
     axis 0 0 0   XYZ 
    dof ry rz
    limits (-10.0 20.0)
           (-20.0 0.0)
  end
  begin
     id 25 
     name rhumerus
     direction -1 -4.48945e-011 8.0491e-028  
     length 4.71404   
     axis 180 30 90   XYZ
    dof rx ry rz
    limits (-90.0 60.0)
           (-90.0 90.0)
           (-90.0 90.0)
  end
  begin
     id 26 
     name rradius
     direction -1 -4.48986e-011 9.27795e-027   
     length 2.83468   
     axis 180 30 90   XYZ
    dof rx
    limits (-10.0 170.0)
  end
  begin
     id 27 
     name rwrist
     direction -1 -4.49029e-011 1.5064e-026   
     length 1.41734   
     axis -9.31234e-015 -90 -90   XYZ
    dof ry
    limits (-180.0 0.0)
  end
  begin
     id 28
     name rhand
     direction -1 -4.48857e-011 3.01165e-026   
     length 0.868195   
     axis -1.92217e-014 -90 -90   XYZ
    dof rx rz
    limits (-90.0 90.0)
           (-45.0 45.0)
  end
  begin
     id 29
     name rfingers
     direction -1 -4.49048e-011 6.02585e-026   
     length 0.699961   
     axis -3.84436e-014 -90 -90   XYZ
    dof rx
    limits (0.0 90.0)
  end
  begin
     id 30
     name rthumb
     direction -0.707107 -6.34854e-011 0.707107   
     length 1.00501   
     axis -90 -45 -2.19363e-014   XYZ
    dof rx rz
    limits (-45.0 45.0)
           (-45.0 45.0)
  end
:hierarchy
  begin
    root lhipjoint rhipjoint lowerback
    lhipjoint lfemur
    lfemur ltibia
    ltibia lfoot
    lfoot ltoes
    rhipjoint rfemur
    rfemur rtibia
    rtibia rfoot
    rfoot rtoes
    lowerback upperback
    upperback thorax
    thorax lowerneck lclavicle rclavicle
    lowerneck upperneck
    upperneck head
    lclavicle lhumerus
    lhumerus lradius
    lradius lwrist
    lwrist lhand lthumb
    lhand lfingers
    rclavicle rhumerus
    rhumerus rradius
    rradius rwrist
    rwrist rhand rthumb
    rhand rfingers
  end

#!OML:ASF H:\ManfredObstacles\Project 1\Capture day 2\Session 1\male.ASF
:FULLY-SPECIFIED
:DEGREES
98
root 1.88758 15.9121 18.2033 -171.009 -5.01688 -182.136
lowerback 1.82144 -1.35344 -3.17391
upperback 3.44167 -1.95497 -0.0718561
thorax 2.61781 -1.11787 1.68865
lowerneck -30.5867 2.25969 -0.410524
upperneck 45.6066 -3.60483 2.6426
head 27.7379 -2.42092 -0.165318
rclavicle -5.28022e-015 -9.93923e-017
rhumerus -45.4847 -16.5727 -68.0017
rradius 28.1405
rwrist 36.8875
rhand -7.09823 -8.46266
rfingers 7.12502
rthumb 18.7763 -37.5765
lclavicle -5.28022e-015 -9.93923e-017
lhumerus -27.2795 9.32415 73.6396
lradius 20.7656
lwrist -54.7877
lhand -3.44645 5.60871
lfingers 7.12502
lthumb 22.2854 34.3437
rfemur -26.8422 3.82833 22.2601
rtibia 27.4842
rfoot -4.92799 -17.7488
rtoes -5.88734
lfemur -25.1291 0.631377 -22.7326
ltibia 68.3723
lfoot 6.11332 22.0805
ltoes -6.26371
99
root 1.89695 15.9202 18.1282 -170.692 -4.98768 -182.324
lowerback 2.04681 -1.17356 -3.27662
upperback 3.51343 -1.73057 -0.143571
thorax 2.55409 -1.01146 1.67883
lowerneck -30.7756 2.01834 -0.517316
upperneck 45.3998 -3.77569 2.6477
head 27.5681 -2.45108 -0.174101
rclavicle -1.55301e-015 8.94531e-016
rhumerus -45.966 -16.7747 -67.3356
rradius 27.6697
rwrist 37.8398
rhand -7.02766 -8.57809
rfingers 7.12502
rthumb 18.8442 -37.6853
lclavicle -1.55301e-015 8.94531e-016
lhumerus -28.0782 9.71978 72.2795
lradius 20.3036
lwrist -55.7705
lhand -3.85367 5.42742
lfingers 7.12502
lthumb 21.8945 34.2086
rfemur -26.9515 3.8926 22.1111
rtibia 27.674
rfoot -5.37028 -17.9156
rtoes -5.72319
lfemur -26.2737 0.386077 -22.9827
ltibia 67.8192
lfoot 5.4013 22.961
ltoes -6.50575
100
root 1.90545 15.9266 18.0537 -170.361 -4.97715 -182.492
lowerback 2.26969 -1.00772 -3.3522
upperback 3.58901 -1.52568 -0.205363
thorax 2.49613 -0.914493 1.66257
lowerneck -30.987 1.78731 -0.612618
upperneck 45.1857 -3.92457 2.64458
head 27.402 -2.47177 -0.183278
rclavicle -1.64619e-014 3.57812e-015
rhumerus -46.5064 -17.041 -66.5598
rradius 27.1352
rwrist 38.9213
rhand -6.91978 -8.68585
rfingers 7.12502
rthumb 18.948 -37.7829
lclavicle -1.64619e-014 3.57812e-015
lhumerus -28.9142 9.97846 70.9375
lradius 19.9166
lwrist -56.6549
lhand -4.17546 5.36822
lfingers 7.12502
lthumb 21.5855 34.1852
rfemur -27.1036 3.92004 21.9824
rtibia 27.9102
rfoot -5.83018 -18.0543
rtoes -5.58767
lfemur -27.3775 0.101179 -23.1881
ltibia 67.1074
lfoot 4.71696 23.8039
ltoes -6.6151
101
root 1.91256 15.931 17.9798 -170.005 -4.97952 -182.626
lowerback 2.4941 -0.853293 -3.3747
upperback 3.63832 -1.33469 -0.26116
thorax 2.40969 -0.82156 1.6221
lowerneck -31.1576 1.55823 -0.735511
upperneck 44.9835 -4.08811 2.67329
head 27.2395 -2.50423 -0.173792
rclavicle -2.99699e-014 2.04997e-016
rhumerus -47.1711 -17.3377 -65.6783
rradius 26.5691
rwrist 40.0168
rhand -6.77123 -8.79621
rfingers 7.12502
rthumb 19.0908 -37.8793
lclavicle -2.99699e-014 2.04997e-016
lhumerus -29.8265 10.0867 69.6029
lradius 19.5967
lwrist -57.3786
lhand -4.40602 5.42419
lfingers 7.12502
lthumb 21.364 34.2665
rfemur -27.3099 3.9198 21.8886
rtibia 28.1856
rfoot -6.31159 -18.1697
rtoes -5.45537
lfemur -28.4559 -0.213759 -23.3349
ltibia 66.2542
lfoot 4.03026 24.5796
ltoes -6.66116
102
root 1.9182 15.9332 17.9064 -169.618 -4.98758 -182.727
lowerback 2.69991 -0.713755 -3.35914
upperback 3.67192 -1.16144 -0.3045
thorax 2.31812 -0.735685 1.57193
lowerneck -31.3206 1.33648 -0.87616
upperneck 44.7899 -4.24311 2.71315
head 27.0895 -2.53885 -0.152805
rclavicle -1.12624e-014 -1.01877e-015
rhumerus -47.9303 -17.6982 -64.6541
rradius 25.941
rwrist 41.2178
rhand -6.63385 -8.8827
rfingers 7.12502
rthumb 19.2229 -37.9527
lclavicle -1.12624e-014 -1.01877e-015
lhumerus -30.8142 10.0901 68.2783
lradius 19.3589
lwrist -57.9322
lhand -4.51899 5.57545
lfingers 7.12502
lthumb 21.2555 34.43
rfemur -27.5761 3.90483 21.8228
rtibia 28.5024
rfoot -6.82188 -18.2671
rtoes -5.2934
lfemur -29.5156 -0.556009 -23.4276
ltibia 65.2693
lfoot 3.32604 25.2546
ltoes -6.69776
103
root 1.92234 15.9328 17.8339 -169.201 -5.00373 -182.796
lowerback 2.90649 -0.590484 -3.29897
upperback 3.68115 -1.00787 -0.339305
thorax 2.20167 -0.657086 1.50503
lowerneck -31.4583 1.13155 -1.01244
upperneck 44.6048 -4.38494 2.75711
head 26.9409 -2.57114 -0.127466
rclavicle 2.51587e-015 -6.1499e-015
rhumerus -48.8079 -18.097 -63.4928
rradius 25.2816
rwrist 42.4854
rhand -6.51397 -8.94599
rfingers 7.12502
rthumb 19.3382 -38.0044
lclavicle 2.51587e-015 -6.1499e-015
lhumerus -31.8821 10.0123 66.9429
lradius 19.1807
lwrist -58.34
lhand -4.55789 5.76563
lfingers 7.12502
lthumb 21.2181 34.6243
rfemur -27.9064 3.88263 21.7857
rtibia 28.8611
rfoot -7.34656 -18.3577
rtoes -5.13458
lfemur -30.5587 -0.932984 -23.4639
ltibia 64.1643
lfoot 2.57362 25.8118
ltoes -6.79507
104
root 1.92519 15.9298 17.7622 -168.766 -5.0292 -182.845
lowerback 3.12311 -0.479892 -3.21181
upperback 3.67486 -0.870166 -0.367979
thorax 2.06459 -0.584905 1.42885
lowerneck -31.5873 0.930329 -1.16435
upperneck 44.4298 -4.52965 2.81617
head 26.8064 -2.60827 -0.0923448
rclavicle 4.06266e-015 1.13804e-014
rhumerus -49.7869 -18.5434 -62.1882
rradius 24.5848
rwrist 43.796
rhand -6.43037 -9.01764
rfingers 7.12502
rthumb 19.4186 -38.068
lclavicle 4.06266e-015 1.13804e-014
lhumerus -33.0115 9.87211 65.594
lradius 19.0408
lwrist -58.6
lhand -4.55098 5.95208
lfingers 7.12502
lthumb 21.2248 34.8101
rfemur -28.2861 3.85096 21.7671
rtibia 29.2692
rfoot -7.85304 -18.4429
rtoes -5.05604
lfemur -31.5661 -1.34461 -23.457
ltibia 62.9441
lfoot 1.81784 26.2371
ltoes -6.98221
105
root 1.92728 15.9241 17.6915 -168.328 -5.05818 -182.87
lowerback 3.35536 -0.376228 -3.1037
upperback 3.66667 -0.741626 -0.38817
thorax 1.91773 -0.51684 1.34906
lowerneck -31.6792 0.748378 -1.25915
upperneck 44.226 -4.6442 2.84201
head 26.6143 -2.62713 -0.0776789
rclavicle -2.2823e-014 -6.75868e-015
rhumerus -50.864 -19.0298 -60.7415
rradius 23.8601
rwrist 45.1749
rhand -6.44044 -9.07365
rfingers 7.12502
rthumb 19.4089 -38.125
lclavicle -2.2823e-014 -6.75868e-015
lhumerus -34.186 9.67432 64.2381
lradius 18.9301
lwrist -58.7457
lhand -4.52411 6.12126
lfingers 7.12502
lthumb 21.2506 34.9763
rfemur -28.7011 3.82764 21.7701
rtibia 29.7246
rfoot -8.36185 -18.5402
rtoes -5.01359
lfemur -32.527 -1.77501 -23.4026
ltibia 61.6212
lfoot 1.09982 26.514
ltoes -7.30681
106
root 1.9291 15.9159 17.622 -167.901 -5.10515 -182.888
lowerback 3.6069 -0.281883 -2.99279
upperback 3.67671 -0.627077 -0.400581
thorax 1.78027 -0.45698 1.27504
lowerneck -31.8103 0.574649 -1.31676
upperneck 44.004 -4.73813 2.84074
head 26.4178 -2.63193 -0.079593
rclavicle -6.4605e-016 2.48481e-016
rhumerus -52.0096 -19.5644 -59.1578
rradius 23.1137
rwrist 46.6042
rhand -6.51672 -9.17566
rfingers 7.12502
rthumb 19.3356 -38.2344
lclavicle -6.4605e-016 2.48481e-016
lhumerus -35.3744 9.52593 62.8308
lradius 18.8223
lwrist -58.9571
lhand -4.49078 6.20835
lfingers 7.12502
lthumb 21.2826 35.0598
rfemur -29.1313 3.80342 21.7836
rtibia 30.224
rfoot -8.85851 -18.6588
rtoes -5.03075
lfemur -33.4202 -2.23616 -23.311
ltibia 60.2094
lfoot 0.435018 26.6613
ltoes -7.77498
107
root 1.93077 15.9055 17.5539 -167.494 -5.15957 -182.892
lowerback 3.88651 -0.193903 -2.8771
upperback 3.70507 -0.522958 -0.402736
thorax 1.64714 -0.403517 1.20833
lowerneck -31.9552 0.412503 -1.31547
upperneck 43.7442 -4.79752 2.78975
head 26.1781 -2.6162 -0.110064
rclavicle -5.19325e-015 -3.77691e-015
rhumerus -53.2282 -20.1611 -57.405
rradius 22.3407
rwrist 48.1368
rhand -6.57296 -9.31538
rfingers 7.12502
rthumb 19.2815 -38.3795
lclavicle -5.19325e-015 -3.77691e-015
lhumerus -36.5785 9.43714 61.3721
lradius 18.7021
lwrist -59.218
lhand -4.49461 6.21788
lfingers 7.12502
lthumb 21.2789 35.0698
rfemur -29.5645 3.78197 21.815
rtibia 30.7582
rfoot -9.35787 -18.7904
rtoes -5.07271
lfemur -34.2419 -2.70388 -23.1821
ltibia 58.7311
lfoot -0.177623 26.7302
ltoes -8.26936
108
root 1.93237 15.8933 17.4877 -167.106 -5.2158 -182.886
lowerback 4.1941 -0.108527 -2.76043
upperback 3.76473 -0.425217 -0.397329
thorax 1.53156 -0.355272 1.14816
lowerneck -32.1344 0.251118 -1.29994
upperneck 43.4543 -4.84401 2.73377
head 25.924 -2.59091 -0.140659
rclavicle 1.93815e-014 -9.44227e-015
rhumerus -54.4947 -20.8473 -55.471
rradius 21.5413
rwrist 49.8074
rhand -6.47524 -9.49538
rfingers 7.12502
rthumb 19.3755 -38.5501
lclavicle 1.93815e-014 -9.44227e-015
lhumerus -37.7665 9.45393 59.8419
lradius 18.5497
lwrist -59.6292
lhand -4.5404 6.13648
lfingers 7.12502
lthumb 21.2349 34.9933
rfemur -30.0012 3.76395 21.8582
rtibia 31.3215
rfoot -9.86669 -18.9306
rtoes -5.11687
lfemur -34.997 -3.17368 -23.0205
ltibia 57.2107
lfoot -0.740554 26.7459
ltoes -8.75651
109
root 1.93351 15.8794 17.4234 -166.737 -5.26266 -182.878
lowerback 4.54583 -0.0323489 -2.65178
upperback 3.83611 -0.342618 -0.382281
thorax 1.4047 -0.315787 1.10224
lowerneck -32.3081 0.111449 -1.23683
upperneck 43.1312 -4.84397 2.63245
head 25.6288 -2.54592 -0.191115
rclavicle -1.49089e-016 -4.57205e-015
rhumerus -55.8292 -21.5562 -53.3525
rradius 20.7348
rwrist 51.5774
rhand -6.19045 -9.70064
rfingers 7.12502
rthumb 19.6493 -38.7276
lclavicle -1.49089e-016 -4.57205e-015
lhumerus -38.9841 9.54258 58.2552
lradius 18.3636
lwrist -60.1114
lhand -4.64331 5.99802
lfingers 7.12502
lthumb 21.1361 34.8659
rfemur -30.4421 3.74296 21.9055
rtibia 31.9087
rfoot -10.3731 -19.0636
rtoes -5.17741
lfemur -35.6873 -3.6365 -22.8424
ltibia 55.6766
lfoot -1.23256 26.7468
ltoes -9.20404
